# xmcd
#
# Track frame offsets: 
#        150
#        13570
#        26544
#        27563
#        37289
#        43036
#        52867
#        61792
#        73983
#        82551
#
# Disc length: 1214 seconds
#
# Revision: 3
# Processed by: cddbd v1.5.2PL0 Copyright (c) Steve Scherf et al.
# Submitted via: ExactAudioCopyFreeDBPlugin 1.0
#
DISCID=7a04bc0a
DTITLE=Ricky Nelson - Rio Bravo O. S. T.
DYEAR=1959
DGENRE=Country
TTITLE0=Dean Martin - 01 Dean Martin - Rio Bravo
TTITLE1=Nelson Riddle - 02 Nelson Riddle - De Guello
TTITLE2=John Wayne - 03 John Wayne - Introduction
TTITLE3=Ricky Nelson and Dean Martin - 04 Ricky Nelson and Dean Martin - M
TTITLE3=y Rifle_My Pony And Me (Film Version)
TTITLE4=05 Ricky Nelson - Cindy (Film Version)
TTITLE5=Ricky Nelson and Dean Martin - 06 Ricky Nelson and Dean Martin - M
TTITLE5=y Rifle_My Pony And Me (Studio Version)
TTITLE6=07 Ricky Nelson - Cindy (Studio Version)
TTITLE7=Dean Martin - 08 Dean Martin - My Rifle_My Pony And Me  (Studi
TTITLE7=o Version)
TTITLE8=09 Ricky Nelson - Restless Kid
TTITLE9=10 Ricky Nelson - Cindy (Alternate Version)
EXTD=
EXTT0=
EXTT1=
EXTT2=
EXTT3=
EXTT4=
EXTT5=
EXTT6=
EXTT7=
EXTT8=
EXTT9=
PLAYORDER=
